<mxfile host="app.diagrams.net" modified="2023-11-08T14:56:02.273Z" agent="Mozilla/5.0 (Windows NT 10.0; Win64; x64) AppleWebKit/537.36 (KHTML, like Gecko) Chrome/119.0.0.0 Safari/537.36" etag="lKZK5OzqXCrhzMEp1hTE" version="22.0.8" type="github">
  <diagram name="第 1 页" id="zYQkf0oS7l_Wd5UYFt0w">
    <mxGraphModel dx="2785" dy="1460" grid="1" gridSize="10" guides="1" tooltips="1" connect="1" arrows="1" fold="1" page="1" pageScale="1" pageWidth="827" pageHeight="1169" math="0" shadow="0">
      <root>
        <mxCell id="0" />
        <mxCell id="1" parent="0" />
        <mxCell id="MoBmle4iaVLPQ8r7kCBZ-3" style="edgeStyle=orthogonalEdgeStyle;rounded=0;orthogonalLoop=1;jettySize=auto;html=1;exitX=0.5;exitY=1;exitDx=0;exitDy=0;entryX=0.5;entryY=0;entryDx=0;entryDy=0;" parent="1" source="MoBmle4iaVLPQ8r7kCBZ-1" target="MoBmle4iaVLPQ8r7kCBZ-2" edge="1">
          <mxGeometry relative="1" as="geometry" />
        </mxCell>
        <mxCell id="MoBmle4iaVLPQ8r7kCBZ-1" value="开始" style="ellipse;whiteSpace=wrap;html=1;flipV=1;" parent="1" vertex="1">
          <mxGeometry x="172" y="35" width="96" height="60" as="geometry" />
        </mxCell>
        <mxCell id="MoBmle4iaVLPQ8r7kCBZ-6" style="edgeStyle=orthogonalEdgeStyle;rounded=0;orthogonalLoop=1;jettySize=auto;html=1;exitX=0.5;exitY=1;exitDx=0;exitDy=0;entryX=0.5;entryY=0;entryDx=0;entryDy=0;" parent="1" source="MoBmle4iaVLPQ8r7kCBZ-2" target="MoBmle4iaVLPQ8r7kCBZ-4" edge="1">
          <mxGeometry relative="1" as="geometry" />
        </mxCell>
        <mxCell id="MoBmle4iaVLPQ8r7kCBZ-2" value="乡镇便民服务大厅、村居便民服务站均可受理" style="rounded=0;whiteSpace=wrap;html=1;flipV=1;" parent="1" vertex="1">
          <mxGeometry x="120" y="135" width="200" height="80" as="geometry" />
        </mxCell>
        <mxCell id="MoBmle4iaVLPQ8r7kCBZ-7" style="edgeStyle=orthogonalEdgeStyle;rounded=0;orthogonalLoop=1;jettySize=auto;html=1;exitX=0.5;exitY=1;exitDx=0;exitDy=0;entryX=0.5;entryY=0;entryDx=0;entryDy=0;" parent="1" source="MoBmle4iaVLPQ8r7kCBZ-4" edge="1" target="MoBmle4iaVLPQ8r7kCBZ-10">
          <mxGeometry relative="1" as="geometry">
            <mxPoint x="180" y="335" as="targetPoint" />
          </mxGeometry>
        </mxCell>
        <mxCell id="MoBmle4iaVLPQ8r7kCBZ-4" value="收集相关材料" style="rounded=0;whiteSpace=wrap;html=1;flipV=1;" parent="1" vertex="1">
          <mxGeometry x="120" y="265" width="200" height="80" as="geometry" />
        </mxCell>
        <mxCell id="MoBmle4iaVLPQ8r7kCBZ-9" style="edgeStyle=orthogonalEdgeStyle;rounded=0;orthogonalLoop=1;jettySize=auto;html=1;exitX=0;exitY=0.5;exitDx=0;exitDy=0;entryX=1;entryY=0.5;entryDx=0;entryDy=0;" parent="1" source="MoBmle4iaVLPQ8r7kCBZ-8" target="MoBmle4iaVLPQ8r7kCBZ-4" edge="1">
          <mxGeometry relative="1" as="geometry" />
        </mxCell>
        <mxCell id="MoBmle4iaVLPQ8r7kCBZ-8" value="&lt;div&gt;1、有效身份凭证（社会保障卡或医保电子凭证或身份证件或户口本）&lt;/div&gt;&lt;div&gt;2、门诊慢特病病种待遇认定申请表&lt;/div&gt;&lt;div&gt;3、病历材料和检查材料&lt;/div&gt;" style="rounded=0;whiteSpace=wrap;html=1;align=left;" parent="1" vertex="1">
          <mxGeometry x="390" y="265" width="370" height="80" as="geometry" />
        </mxCell>
        <mxCell id="MoBmle4iaVLPQ8r7kCBZ-12" style="edgeStyle=orthogonalEdgeStyle;rounded=0;orthogonalLoop=1;jettySize=auto;html=1;exitX=0.5;exitY=1;exitDx=0;exitDy=0;" parent="1" source="MoBmle4iaVLPQ8r7kCBZ-10" target="MoBmle4iaVLPQ8r7kCBZ-11" edge="1">
          <mxGeometry relative="1" as="geometry" />
        </mxCell>
        <mxCell id="MoBmle4iaVLPQ8r7kCBZ-27" style="edgeStyle=orthogonalEdgeStyle;rounded=0;orthogonalLoop=1;jettySize=auto;html=1;exitX=1;exitY=0.5;exitDx=0;exitDy=0;entryX=0.5;entryY=0;entryDx=0;entryDy=0;" parent="1" source="MoBmle4iaVLPQ8r7kCBZ-10" target="MoBmle4iaVLPQ8r7kCBZ-16" edge="1">
          <mxGeometry relative="1" as="geometry" />
        </mxCell>
        <mxCell id="MoBmle4iaVLPQ8r7kCBZ-10" value="乡镇医保窗口审核材料&lt;br&gt;是否达到申请标准" style="rhombus;whiteSpace=wrap;html=1;flipV=1;" parent="1" vertex="1">
          <mxGeometry x="110" y="395" width="220" height="110" as="geometry" />
        </mxCell>
        <mxCell id="MoBmle4iaVLPQ8r7kCBZ-22" style="edgeStyle=orthogonalEdgeStyle;rounded=0;orthogonalLoop=1;jettySize=auto;html=1;exitX=0.5;exitY=1;exitDx=0;exitDy=0;entryX=0.5;entryY=0;entryDx=0;entryDy=0;" parent="1" source="MoBmle4iaVLPQ8r7kCBZ-11" target="MoBmle4iaVLPQ8r7kCBZ-21" edge="1">
          <mxGeometry relative="1" as="geometry" />
        </mxCell>
        <mxCell id="MoBmle4iaVLPQ8r7kCBZ-11" value="在荆州受理平台进行门诊慢特病病种待遇认定申请" style="rounded=0;whiteSpace=wrap;html=1;flipV=1;" parent="1" vertex="1">
          <mxGeometry x="120" y="565" width="200" height="80" as="geometry" />
        </mxCell>
        <mxCell id="MoBmle4iaVLPQ8r7kCBZ-15" value="是" style="text;html=1;strokeColor=none;fillColor=none;align=center;verticalAlign=middle;whiteSpace=wrap;rounded=0;" parent="1" vertex="1">
          <mxGeometry x="200" y="515" width="60" height="30" as="geometry" />
        </mxCell>
        <mxCell id="vSB2HKqjgQNLfzRTWTfq-8" style="edgeStyle=orthogonalEdgeStyle;rounded=0;hachureGap=4;orthogonalLoop=1;jettySize=auto;html=1;exitX=0.5;exitY=1;exitDx=0;exitDy=0;entryX=0.5;entryY=0;entryDx=0;entryDy=0;fontFamily=Architects Daughter;fontSource=https%3A%2F%2Ffonts.googleapis.com%2Fcss%3Ffamily%3DArchitects%2BDaughter;fontSize=16;" edge="1" parent="1" source="MoBmle4iaVLPQ8r7kCBZ-16" target="MoBmle4iaVLPQ8r7kCBZ-25">
          <mxGeometry relative="1" as="geometry">
            <Array as="points">
              <mxPoint x="590" y="1035" />
              <mxPoint x="220" y="1035" />
            </Array>
          </mxGeometry>
        </mxCell>
        <mxCell id="MoBmle4iaVLPQ8r7kCBZ-16" value="告知原因及申请标准" style="rounded=0;whiteSpace=wrap;html=1;" parent="1" vertex="1">
          <mxGeometry x="490" y="560" width="200" height="80" as="geometry" />
        </mxCell>
        <mxCell id="MoBmle4iaVLPQ8r7kCBZ-20" value="否" style="text;html=1;strokeColor=none;fillColor=none;align=center;verticalAlign=middle;whiteSpace=wrap;rounded=0;" parent="1" vertex="1">
          <mxGeometry x="330" y="425" width="60" height="30" as="geometry" />
        </mxCell>
        <mxCell id="vSB2HKqjgQNLfzRTWTfq-5" style="edgeStyle=orthogonalEdgeStyle;rounded=0;hachureGap=4;orthogonalLoop=1;jettySize=auto;html=1;exitX=0.5;exitY=1;exitDx=0;exitDy=0;entryX=0.5;entryY=0;entryDx=0;entryDy=0;fontFamily=Architects Daughter;fontSource=https%3A%2F%2Ffonts.googleapis.com%2Fcss%3Ffamily%3DArchitects%2BDaughter;fontSize=16;" edge="1" parent="1" source="MoBmle4iaVLPQ8r7kCBZ-21" target="vSB2HKqjgQNLfzRTWTfq-3">
          <mxGeometry relative="1" as="geometry" />
        </mxCell>
        <mxCell id="MoBmle4iaVLPQ8r7kCBZ-21" value="合格的材料在乡便民服务大厅医保窗口处归档" style="rounded=0;whiteSpace=wrap;html=1;flipV=1;" parent="1" vertex="1">
          <mxGeometry x="120" y="685" width="200" height="80" as="geometry" />
        </mxCell>
        <mxCell id="MoBmle4iaVLPQ8r7kCBZ-25" value="结束" style="ellipse;whiteSpace=wrap;html=1;flipV=1;" parent="1" vertex="1">
          <mxGeometry x="172" y="1075" width="96" height="60" as="geometry" />
        </mxCell>
        <mxCell id="vSB2HKqjgQNLfzRTWTfq-6" style="edgeStyle=orthogonalEdgeStyle;rounded=0;hachureGap=4;orthogonalLoop=1;jettySize=auto;html=1;exitX=0.5;exitY=1;exitDx=0;exitDy=0;entryX=0.5;entryY=0;entryDx=0;entryDy=0;fontFamily=Architects Daughter;fontSource=https%3A%2F%2Ffonts.googleapis.com%2Fcss%3Ffamily%3DArchitects%2BDaughter;fontSize=16;" edge="1" parent="1" source="vSB2HKqjgQNLfzRTWTfq-3" target="vSB2HKqjgQNLfzRTWTfq-4">
          <mxGeometry relative="1" as="geometry" />
        </mxCell>
        <mxCell id="vSB2HKqjgQNLfzRTWTfq-3" value="市慢保科在医保专网审核慢保收件信息" style="rounded=0;whiteSpace=wrap;html=1;flipV=1;" vertex="1" parent="1">
          <mxGeometry x="120" y="805" width="200" height="80" as="geometry" />
        </mxCell>
        <mxCell id="vSB2HKqjgQNLfzRTWTfq-7" style="edgeStyle=orthogonalEdgeStyle;rounded=0;hachureGap=4;orthogonalLoop=1;jettySize=auto;html=1;exitX=0.5;exitY=1;exitDx=0;exitDy=0;entryX=0.5;entryY=0;entryDx=0;entryDy=0;fontFamily=Architects Daughter;fontSource=https%3A%2F%2Ffonts.googleapis.com%2Fcss%3Ffamily%3DArchitects%2BDaughter;fontSize=16;" edge="1" parent="1" source="vSB2HKqjgQNLfzRTWTfq-4" target="MoBmle4iaVLPQ8r7kCBZ-25">
          <mxGeometry relative="1" as="geometry" />
        </mxCell>
        <mxCell id="vSB2HKqjgQNLfzRTWTfq-4" value="在荆州受理平台进行出件，并记录台账" style="rounded=0;whiteSpace=wrap;html=1;flipV=1;" vertex="1" parent="1">
          <mxGeometry x="120" y="935" width="200" height="80" as="geometry" />
        </mxCell>
      </root>
    </mxGraphModel>
  </diagram>
</mxfile>
